<svg width="112" height="33" viewBox="0 0 112 33" fill="none" xmlns="http://www.w3.org/2000/svg">
<path d="M61.384 28H67.096L73.48 8.4H68.58L64.24 22.82L59.9 8.4H55L61.384 28ZM87.0633 28H91.9633L85.2993 8.4H79.5873L72.9233 28H77.8233L78.8033 24.92H86.0833L87.0633 28ZM80.1473 20.72L82.4433 13.524L84.7393 20.72H80.1473ZM102.836 28.392C106.42 28.392 109.556 26.628 111.236 23.856L107.372 21.616C106.532 23.128 104.824 24.024 102.836 24.024C99.3636 24.024 97.1236 21.7 97.1236 18.2C97.1236 14.7 99.3636 12.376 102.836 12.376C104.824 12.376 106.504 13.272 107.372 14.784L111.236 12.544C109.528 9.772 106.392 8.008 102.836 8.008C96.9276 8.008 92.6436 12.432 92.6436 18.2C92.6436 23.968 96.9276 28.392 102.836 28.392Z" fill="#7380FF"/>
<path fill-rule="evenodd" clip-rule="evenodd" d="M19.8913 12.5066H7.4589L0 4.99508e-09H8.89149C9.97098 -4.32261e-05 11.032 0.28053 11.9709 0.814305C12.9099 1.34808 13.6945 2.1168 14.2483 3.04536L19.8913 12.5066Z" fill="#D2D6FF"/>
<path fill-rule="evenodd" clip-rule="evenodd" d="M35.6723 2.99533L29.8778 12.5066H7.41016L16.9203 28.2515C17.4764 29.172 18.26 29.9331 19.1954 30.4612C20.1309 30.9894 21.1865 31.2668 22.2602 31.2665H27.6982C28.7796 31.2664 29.8424 30.9846 30.7824 30.4488C31.7225 29.9131 32.5074 29.1417 33.0603 28.2104L42.3815 12.5066L50.0009 6.80606e-10H40.9989C39.9293 -1.58107e-05 38.8776 0.275459 37.9449 0.799984C37.0121 1.32451 36.2296 2.08048 35.6723 2.99533Z" fill="#7380FF"/>
</svg>
