<svg width="1440" height="522" viewBox="0 0 1440 522" fill="none" xmlns="http://www.w3.org/2000/svg">
<path d="M59.0466 547.97L51.779 550.525H58.7005L59.7772 550.143L59.9117 550.525H62.3535L61.969 549.381L183.922 506.416C186.825 519.879 190.132 534.544 193.804 550.525H205.706C190.151 482.521 181.653 440.147 180.519 412.572C200.418 406.622 215.473 406.183 219.068 406.183L228.585 439.289C228.681 439.632 228.931 439.899 229.258 440.033C229.393 440.09 229.546 440.128 229.7 440.128C229.892 440.128 230.085 440.09 230.258 439.995L257.867 425.024C258.386 424.738 258.597 424.128 258.386 423.594L246.196 393.177L262.077 385.225L279.4 376.911L296.397 390.927L226.585 550.525H229.104L259.693 480.595L301.242 496.995L303.914 520.375L264.884 526.382C264.346 526.458 263.942 526.897 263.904 527.45L262.347 550.525H264.673L266.153 528.518L281.054 526.23L282.381 550.525H300.184L298.069 523.617L305.356 522.492L333.138 518.888L339.329 550.525H341.694L335.445 518.582L351.096 516.542L354.633 532.16L343.078 550.506H345.808L355.345 535.345L358.786 550.506H363.535L359.171 531.226L403.065 513.434L414.081 543.011C414.274 543.545 414.85 543.869 415.427 543.736L428.52 540.666L431.424 550.506H433.846L430.462 538.968C430.289 538.377 429.674 538.034 429.078 538.167L415.908 541.257L405.218 512.556L496.909 475.389L560.164 465.815L569.181 485.553C569.258 485.706 569.354 485.839 569.469 485.953L594.137 507.274L625.995 543.374L632.301 550.506H635.377L628.398 542.611L642.683 526.211L656.334 547.035C656.565 547.378 656.93 547.55 657.315 547.55C657.526 547.55 657.757 547.493 657.949 547.359C658.488 547.016 658.641 546.31 658.295 545.776L643.818 523.693L632.513 505.443L655.661 484.161L667.485 497.453L667.178 521.309C667.178 521.939 667.678 522.473 668.331 522.473H668.351C668.985 522.473 669.504 521.977 669.504 521.329L669.812 497.014C669.812 496.728 669.716 496.461 669.523 496.232L657.372 482.559L668.831 472.013L698.882 488.166C699.055 488.261 699.247 488.299 699.44 488.299C699.767 488.299 700.113 488.147 700.324 487.88L707.246 479.641L710.764 488.28C710.899 488.604 711.187 488.852 711.533 488.967L727.933 493.486L733.413 509.982C733.471 510.153 733.567 510.306 733.682 510.42L772.712 550.468H778.806L828.622 503.384C828.622 503.384 828.622 503.384 828.641 503.384C828.641 503.384 828.641 503.365 828.66 503.365L856.481 477.067L909.681 506.015L918.89 528.308L901.951 550.525H904.855L933.829 512.614L933.848 512.633C934.06 512.804 934.329 512.88 934.579 512.88C934.925 512.88 935.252 512.728 935.482 512.461C935.886 511.965 935.809 511.24 935.309 510.84L935.232 510.783L950.69 490.549L969.186 504.947C964.13 511.279 959.054 517.61 953.978 523.96L953.959 523.979C953.94 523.998 953.921 524.017 953.921 524.036C950.806 527.946 947.691 531.836 944.576 535.746C940.154 541.276 936.174 546.272 932.752 550.544H953.651C957.227 541.066 960.4 534.449 963.053 531.112C963.438 530.635 963.822 530.139 964.226 529.643L984.164 543.583C984.375 543.717 984.606 543.793 984.836 543.793C985.183 543.793 985.529 543.641 985.759 543.336L993.181 533.572C993.565 533.057 993.469 532.351 992.95 531.97C992.431 531.588 991.72 531.684 991.335 532.199L984.587 541.085L965.668 527.87C977.646 512.861 992.854 493.887 1009.43 473.291L1051.98 494.497L1020.83 550.525H1023.48L1030 538.816L1051.61 550.525H1056.44L1031.11 536.794L1056.99 490.225L1073.28 461.467C1073.34 461.353 1073.39 461.22 1073.41 461.105L1078.37 432.29C1078.37 432.271 1078.37 432.271 1078.37 432.252L1178.85 439.975L1163.45 454.145C1163.05 454.526 1162.95 455.136 1163.26 455.594L1177.22 477.505L1132.07 550.525H1134.8L1178.81 479.279L1256.53 549.991L1256.2 550.525H1262.93L1260.02 549.362L1296.73 510.134L1348.48 533.762C1346.45 539.235 1344.37 544.842 1342.27 550.525H1354.66C1356.98 544.194 1359.29 537.977 1361.52 531.97C1365.52 538.492 1369.38 544.766 1372.98 550.525H1386.63C1383.34 545.319 1379.67 539.426 1375.75 533.076L1407.53 545.529L1419.43 550.525H1425.37L1409.47 543.85L1432.31 488.547L1441.98 492.437L1441.98 489.958L1433.2 486.411L1441.98 465.129L1441.98 459.065L1440.19 463.374L1419.7 453.839L1425.7 441.31L1441.98 447.394L1441.98 444.934L1426.68 439.213L1431.7 428.724C1431.89 428.305 1431.81 427.847 1431.54 427.504L1441.98 431.775L1441.98 429.296L1409.95 416.214C1411.55 412.705 1413.2 409.082 1414.85 405.42L1441.98 416.691L1441.98 414.193L1415.8 403.323C1419.28 395.618 1422.79 387.742 1426.18 380.152L1442 386.522L1442 374.107L1430.89 369.626C1435.08 360.186 1438.87 351.585 1441.81 344.892L1442 344.987L1442 312.663C1430.33 334.174 1414.18 354.961 1376.42 366.098C1374.54 366.384 1372.63 366.708 1370.71 367.089C1353.77 370.446 1310.22 369.912 1273.5 368.196L1285.71 328.053L1316.45 286.518L1355.35 314.189C1355.56 314.342 1355.79 314.399 1356.02 314.399C1356.39 314.399 1356.73 314.227 1356.96 313.922C1357.33 313.407 1357.21 312.682 1356.69 312.32L1317.8 284.687L1338.64 256.521L1442 298.933L1442 296.454L1338.89 254.137L1310.09 227.058L1358.96 167.502L1441.98 208.502L1441.98 195.649L1365.19 157.719L1442 7.56052L1442 -13.1878L1420.24 -8.47745L1426.83 -31.743C1430.66 -29.836 1435.96 -27.4331 1442.02 -25.1829L1442.02 -37.5212C1434.7 -40.4962 1429.06 -43.5092 1427.01 -44.6535C1418.8 -54.6081 1348.2 -140.195 1335.72 -151.789C1323.45 -163.212 1278.5 -183.179 1267.71 -187.87C1237.38 -243.116 1192.39 -326.033 1189.79 -333.547C1188.89 -337.952 1185.23 -371.172 1181.89 -402.962H1170.24C1170.91 -396.497 1171.66 -389.46 1172.43 -382.366L1165.06 -402.981L1152.76 -402.981L1156.66 -392.054L1102.69 -396.154L1103.71 -402.981H1101.37L1100.37 -396.325L1052.67 -399.949L1052.34 -402.981H1047.67L1048.03 -399.72L1023.98 -395.811L1022.17 -402.981H1019.79L1021.71 -395.448L984.894 -389.479L983.433 -402.981H981.107L982.587 -389.098L934.829 -381.355L931.253 -402.981H928.907L932.541 -380.974L885.724 -373.384C885.513 -383.644 885.34 -393.331 885.205 -401.76L892.473 -402.981H859.192L825.776 -401.665L825.853 -402.981H823.527L821.931 -372.85H806.742C806.492 -372.85 806.262 -372.774 806.05 -372.621C805.877 -372.488 792.284 -362.59 781.69 -355.039L779.191 -371L796.764 -378.59C797.129 -378.743 797.398 -379.105 797.456 -379.506L800.244 -400.921C800.321 -401.532 799.917 -402.085 799.302 -402.199L795.033 -402.981H782.402L797.821 -400.12L795.264 -380.44L777.48 -372.755C776.999 -372.545 776.711 -372.049 776.788 -371.515L779.595 -353.532C776.961 -351.663 774.596 -350.004 772.808 -348.765C764.194 -342.853 729.779 -331.678 726.799 -330.724L702.727 -332.097L659.487 -379.944L653.758 -397.908L661.448 -402.981H657.257L653.027 -400.197L652.124 -402.981H649.682L657.334 -379.029C657.392 -378.876 657.469 -378.724 657.584 -378.609L700.151 -331.468L609.806 -298.458C607.691 -298.934 594.444 -302.157 591.868 -310.109C590.887 -313.103 583.947 -328.569 574.872 -348.65C574.891 -348.65 574.93 -348.65 574.949 -348.669L619.15 -370.142L630.821 -342.891C630.955 -342.586 631.205 -342.357 631.513 -342.262C631.628 -342.224 631.763 -342.204 631.897 -342.204C632.09 -342.204 632.282 -342.262 632.455 -342.357L659.199 -357.117C659.468 -357.27 659.68 -357.537 659.756 -357.842C659.833 -358.147 659.795 -358.471 659.622 -358.738L637.473 -394.075C637.204 -394.514 636.666 -394.704 636.166 -394.571L613.882 -388.335L607.614 -402.981H605.096L618.247 -372.259L573.949 -350.729C573.564 -351.587 573.18 -352.426 572.795 -353.284C566.008 -368.292 557.991 -386.028 550.474 -402.981H547.936C555.434 -386.085 563.509 -368.178 570.68 -352.35C580.736 -330.095 588.676 -312.512 589.695 -309.404C592.368 -301.147 604 -297.542 608.191 -296.493C605.365 -291.268 594.733 -271.893 589.984 -267.183C586.158 -263.388 570.796 -254.177 561.683 -248.856L525.633 -284.613L470.876 -402.981H458.11L481.374 -352.674L396.143 -360.245C404.487 -372.774 414.543 -387.858 424.637 -402.981H410.717C402.026 -389.975 393.009 -376.454 385.338 -364.898L392.509 -402.981H390.145L385.069 -375.997L339.444 -387.668L342.598 -402.981H340.233L331.619 -361.16L280.785 -374.433L282.9 -402.981H280.573L278.401 -373.651L278.401 -373.632L278.401 -373.613L275.055 -297.313C275.036 -296.76 275.401 -296.284 275.92 -296.15L297.377 -290.715L251.907 -260.756L216.838 -362.915C221.183 -368.617 231.123 -383.167 237.083 -403L224.855 -403C219.222 -386.314 210.762 -374.09 207.378 -369.627L199.707 -382.995C199.534 -383.301 199.246 -383.491 198.899 -383.568C198.553 -383.625 198.207 -383.529 197.938 -383.32L182.076 -369.951L139.605 -402.981H135.856L180.308 -368.388L136.779 -331.716L135.125 -364.23C135.106 -364.726 134.741 -365.165 134.26 -365.279L121.013 -368.598C120.783 -368.655 120.552 -368.636 120.321 -368.559L93.6925 -358.7L51.5098 -362.457L60.2578 -395.086H76.6387C77.1578 -395.086 77.6193 -395.448 77.7539 -395.944L79.6188 -402.981H77.2155L75.7351 -397.374H59.4695L46.3571 -400.101L46.9147 -402.981H44.5498L44.0884 -400.578L32.5333 -402.981H21.2282L43.6654 -398.328L36.8785 -363.296L14.0568 -352.369L0.0214843 -355.096L0.0214843 -352.75L12.9224 -350.233L10.4999 -330.858L0.0214843 -333.566L0.0214843 -331.182L2.96312 -330.419L0.0214842 -299.449L0.0214842 -274.906L2.02103 -295.959L42.5118 -288.045L38.9742 -248.685L0.0214842 -249.981L0.0214842 -247.674L39.9932 -246.339H40.0316L82.3105 -246.987L89.3089 -202.325C57.6238 -205.014 23.4392 -214.511 0.0214841 -222.158L0.0214841 -210.01C5.50101 -208.256 11.4612 -206.444 17.8444 -204.633C51.952 -194.945 81.3684 -190.063 105.536 -190.063C109.17 -190.063 112.688 -190.177 116.072 -190.387C124.935 -190.959 133.991 -192.523 143.008 -194.735L180.25 -185.83L176.193 -161.153C160.735 -164.395 142.431 -169.239 142.162 -169.296C142.085 -169.315 142.009 -169.334 141.951 -169.334L108.978 -171.641C108.804 -171.641 108.631 -171.622 108.478 -171.565L24.5928 -139.184L0.0214841 -165.596L0.0214841 -162.202L23.0739 -137.411L22.0934 -113.039C22.0934 -112.867 22.1126 -112.715 22.1703 -112.562L36.6862 -76.9964L34.7252 -67.9572L0.021484 -142.464L0.021484 -115.041L35.898 -37.9789C31.4567 -35.3282 27.6114 -33.0207 24.4582 -31.1327L0.0214839 -47.9716L0.0214839 -33.9742L17.0369 -22.2461L8.32729 -2.29874C6.25084 -7.12347 3.50146 -12.0817 0.0214839 -17.0208L0.0214838 8.72379C0.675182 10.8596 1.21352 12.9383 1.61728 14.9979C1.65573 15.3411 1.71341 15.6844 1.82877 16.0276C4.40511 29.9679 1.71341 41.3909 0.0214838 46.6733L0.0214837 65.7053L8.57723 55.8651C8.96176 55.4265 9.26939 54.9498 9.5001 54.4158C9.98076 53.3098 17.0945 36.6996 13.4415 14.9406L28.8419 -20.32C32.7448 -22.6656 36.7439 -25.0494 40.8007 -27.4904L75.7928 47.6841L48.722 57.7149C48.3182 57.8675 48.0491 58.2108 47.9721 58.6303L45.1651 77.2237L31.2259 108.518L8.05812 120.265C7.51978 120.532 7.28907 121.18 7.51978 121.733L65.1413 257.837L74.9468 280.969C69.871 283.257 64.9491 285.508 60.1617 287.682L0.0214836 148.336L0.0214836 154.172L58.066 288.673C55.1628 289.989 52.3365 291.286 49.5487 292.544L0.0214836 176.636L0.0214836 182.529L47.453 293.498C41.1083 296.397 35.0712 299.143 29.3994 301.736L11.9803 257.036C11.7496 256.445 11.0767 256.159 10.4807 256.368C9.88463 256.597 9.57701 257.265 9.80773 257.856L27.2845 302.69C16.8254 307.457 7.67359 311.653 0.0214834 315.181L0.0214834 327.862C8.36574 324.029 18.9787 319.147 31.4567 313.445L46.4533 351.929C30.7261 358.737 15.5372 365.316 1.75186 371.266L0.0214833 366.174L0.0214833 374.508C0.136842 374.451 0.232974 374.412 0.348332 374.374L32.9179 470.678L0.0214832 484.237L0.0214832 486.735L33.6485 472.871L59.0466 547.97ZM284.707 550.487L283.361 525.867L295.762 523.96L297.781 549.8L284.707 550.487ZM614.786 -386.199L635.954 -392.13L656.988 -358.509L632.436 -344.951L614.786 -386.199ZM183.422 504.146L61.2384 547.207L35.8018 471.994L72.9472 456.681C73.524 456.433 73.8124 455.785 73.5817 455.193L65.795 435.303C65.7758 435.246 65.7373 435.208 65.6989 435.151L164.984 399.909L169.079 398.46C167.522 421.592 172.771 454.64 183.422 504.146ZM907.739 -285.948C907.777 -286.367 907.585 -286.768 907.239 -286.996C906.893 -287.225 906.451 -287.263 906.066 -287.073L888.666 -278.529C887.916 -292.012 887.263 -310.968 886.724 -330.953L941.039 -329.599L941.519 -326.681C941.404 -325.442 940.635 -317.032 940.5 -304.999C940.5 -304.922 940.481 -304.865 940.5 -304.789C940.443 -298.61 940.558 -291.478 941.02 -283.869C941.02 -283.85 941 -283.812 941 -283.793C941 -283.735 941.02 -283.697 941.039 -283.64C941.712 -272.637 943.135 -260.68 945.807 -249.18C948.691 -236.823 956.074 -210.506 964.591 -181.176L898.049 -169.525C897.914 -171.393 897.779 -173.281 897.645 -175.169L907.739 -285.948ZM896.626 -189.491C894.319 -220.747 891.8 -251.564 890.185 -260.794C889.704 -263.578 889.243 -268.937 888.82 -276.069L905.258 -284.136L896.626 -189.491ZM1058.88 -301.28L1062.42 -269.09L1037.31 -276.794L1037.31 -303.683L1058.88 -301.28ZM1037.31 -306.028L1037.31 -338.696L1055.15 -335.129L1058.61 -303.626L1037.31 -306.028ZM1008.74 -205.224L1002.68 -222.749L1067.11 -226.563L1068.13 -217.276L1008.74 -205.224ZM1068.38 -215.007L1069.49 -204.957L1016.31 -183.35L1009.5 -203.05L1068.38 -215.007ZM1001.89 -225.019L999.006 -233.352C998.795 -233.962 998.141 -234.268 997.526 -234.058C996.911 -233.848 996.603 -233.2 996.815 -232.589L1014.52 -181.405C1014.62 -181.1 1014.85 -180.871 1015.14 -180.738C1015.29 -180.662 1015.44 -180.642 1015.62 -180.642C1015.77 -180.642 1015.93 -180.681 1016.06 -180.719L1069.76 -202.535L1069.78 -202.268C1063.53 -179.651 1054.86 -155.222 1048.84 -145.229L982.549 -128.257C968.783 -174.654 952.652 -229.996 948.056 -249.714C945.499 -260.68 944.115 -272.084 943.423 -282.648H975.262C975.896 -282.648 976.415 -283.163 976.415 -283.793L976.415 -293.061L997.834 -286.482L987.221 -254.73C987.028 -254.12 987.355 -253.471 987.951 -253.281C988.067 -253.242 988.201 -253.223 988.317 -253.223C988.797 -253.223 989.259 -253.528 989.412 -254.005L1000.03 -285.795L1011.6 -282.248L1011.6 -251.774C1011.6 -251.145 1012.12 -250.63 1012.75 -250.63L1064.41 -250.63L1066.82 -228.833L1001.89 -225.019ZM1117.88 -111.647L1111.79 -125.663C1111.54 -126.235 1110.88 -126.502 1110.31 -126.274L1099.16 -121.964C1098.73 -121.811 1098.46 -121.43 1098.43 -120.991L1096.81 -100.796L1064.66 -92.138C1064.07 -91.9855 1063.7 -91.3943 1063.84 -90.8031L1068.16 -69.7879C1068.28 -69.2348 1068.76 -68.8725 1069.3 -68.8725C1069.38 -68.8725 1069.45 -68.8725 1069.53 -68.8916L1123.34 -79.7615C1123.65 -70.8367 1123.9 -63.5329 1124.04 -59.5663C1097.73 -60.024 1066.78 -61.0347 1061.68 -63.7808C1054.78 -67.5185 1016.56 -98.8507 992.431 -118.951L1120.73 -151.789C1121.04 -143.513 1121.59 -128.238 1122.19 -112.276L1117.88 -111.647ZM1122.25 -109.95C1122.59 -100.319 1122.96 -90.5934 1123.25 -82.0881L1070.18 -71.3707L1066.32 -90.1929L1098.2 -98.7554C1098.68 -98.8889 1099 -99.2893 1099.04 -99.7661L1100.66 -120.057L1110.08 -123.699L1116.08 -109.892C1116.29 -109.416 1116.81 -109.13 1117.31 -109.206L1122.25 -109.95ZM1213.8 313.045C1213.8 313.121 1213.8 313.197 1213.8 313.274C1214.09 326.337 1213.25 337.817 1212.84 341.497C1210.32 340.773 1204.21 338.999 1196.04 336.501C1196.06 336.406 1196.08 336.329 1196.06 336.234L1192.15 304.177C1192.08 303.548 1191.5 303.09 1190.87 303.166C1190.23 303.243 1189.77 303.815 1189.85 304.444L1193.65 335.757C1178.64 331.123 1157.76 324.334 1139.44 317.164C1148.07 307.743 1154.39 301.488 1157.45 299.677C1166.31 294.394 1187.02 286.747 1209.23 279.31C1212.36 288.883 1213.53 301.545 1213.8 313.045ZM1211.42 278.585C1233.41 271.262 1256.54 264.225 1270.94 259.934L1216.01 310.604C1215.63 299.543 1214.38 287.701 1211.42 278.585ZM891.627 333.526C891.454 332.954 890.839 332.611 890.262 332.744L871.862 337.073C871.266 337.207 870.882 337.779 870.978 338.37L873.439 353.435L857.75 358.355L848.233 328.606L905.182 314.57L909.296 340.735L895.703 346.341L891.627 333.526ZM893.53 347.161L875.688 352.749L873.458 339.075L889.762 335.242L893.53 347.161ZM870.805 399.146L865.094 381.297L915.295 367.929L920.313 386.446L870.805 399.146ZM920.909 388.658L927.542 413.125L875.823 424.433L871.362 401.378L920.909 388.658ZM868.901 400.748L873.593 425.082L831.891 441.196L802.82 407.823L851.175 345.426L855.885 360.148L855.885 360.167C855.885 360.167 855.885 360.167 855.885 360.186L862.48 380.782L862.48 380.801C862.48 380.82 862.499 380.82 862.499 380.82L868.901 400.748ZM829.91 442.416L798.187 469.057L774.788 443.961L801.378 409.654L829.91 442.416ZM850.329 342.756L773.192 442.283L727.433 393.216L826.103 299.028L841.138 315.161L809.396 351.624C808.973 352.1 809.03 352.825 809.511 353.245C809.992 353.664 810.722 353.607 811.145 353.13L842.215 317.431L850.329 342.756ZM724.261 393.063L715.205 401.702L690.788 373.497L726.876 338.046L752.12 366.441L725.799 391.576C725.376 391.385 724.876 391.442 724.511 391.766C724.165 392.109 724.069 392.624 724.261 393.063ZM541.726 380.839C541.149 380.572 540.457 380.801 540.168 381.373L529.824 402.312L517.731 403.819L507.945 388.505L521.942 371.514H543.341C543.975 371.514 544.494 370.999 544.494 370.37C544.494 369.74 543.975 369.225 543.341 369.225H522.557L522.557 352.806L541.053 355.438C541.11 355.438 541.168 355.457 541.226 355.457C541.533 355.457 541.822 355.342 542.052 355.113C542.302 354.865 542.437 354.503 542.379 354.141L538.842 328.377C538.784 327.958 538.515 327.614 538.111 327.462L522.768 321.512L533.497 276.583L543.052 279.081C543.629 279.233 544.225 278.928 544.436 278.375L557.914 242.39L560.164 245.022C560.183 245.041 560.221 245.06 560.241 245.079C560.26 245.098 560.26 245.136 560.279 245.155L659.833 328.606L633.916 352.958L572.411 300.306C571.93 299.886 571.2 299.944 570.777 300.42L560.164 312.358C559.741 312.835 559.779 313.56 560.26 313.979C560.74 314.399 561.471 314.361 561.894 313.884L571.757 302.804L598.405 325.631L585.696 337.741C585.235 338.179 585.216 338.904 585.658 339.362L615.363 370.408L600.943 383.947L572.43 410.741L559.683 396.019C559.26 395.542 558.529 395.485 558.049 395.885C557.568 396.305 557.51 397.03 557.914 397.506L570.738 412.324L555.357 426.76L531.959 403.246L542.225 382.479C542.552 381.793 542.302 381.106 541.726 380.839ZM308.625 329.216L315.758 360.663L306.644 364.095L295.57 332.916L308.625 329.216ZM293.724 331.047L250.715 342.889L240.698 308.506C240.582 308.086 240.217 307.762 239.794 307.686L225.759 305.226C225.547 303.128 225.24 301.107 224.855 299.2C224.721 298.532 224.509 297.674 224.221 296.683L296.089 274.008L308.105 326.966L293.724 331.047ZM300.069 270.557C299.934 269.927 299.53 269.393 298.954 269.069C298.761 268.955 298.55 268.917 298.358 268.878L293.801 253.737L352.845 233.999L371.514 289.817L358.133 295.138C357.594 295.348 357.287 295.939 357.44 296.492L372.648 353.283L320.199 359.233L300.069 270.557ZM382.646 233.179L399.392 226.657L420.964 270.099L399.931 278.471L382.646 233.179ZM397.777 279.329L373.648 288.921L358.19 242.676L380.493 233.999L397.777 279.329ZM357.46 240.502L354.672 232.149L350.519 219.754L389.395 206.519L398.373 224.598L357.46 240.502ZM359.921 296.873L422.003 272.177L447.343 323.209L449.343 337.512L414.985 343.5C414.908 343.519 414.812 343.538 414.735 343.576L398.604 350.308L374.956 352.997L359.921 296.873ZM424.156 271.319L479.067 249.465L479.163 250.972L461.648 335.376L451.631 337.13L449.612 322.713C449.593 322.599 449.554 322.465 449.496 322.37L424.156 271.319ZM462.628 337.55L474.664 339.514L479.47 347.237L463.147 355.819H463.128L433.981 371.914L417.081 345.483L462.628 337.55ZM434.308 374.374L463.339 358.355L478.644 381.411L438.941 400.71L425.925 382.689L434.308 374.374ZM465.377 357.249L480.701 349.202L500.792 381.411L480.97 380.763L465.377 357.249ZM482.758 348.115L491.506 343.519C491.852 343.328 492.083 342.985 492.121 342.603L494.179 318.976L510.54 311.977C511.136 311.729 511.405 311.042 511.156 310.47C510.906 309.879 510.213 309.612 509.637 309.86L492.641 317.126C492.256 317.297 491.987 317.66 491.948 318.079L489.872 341.764L481.547 346.131L476.375 337.836C476.202 337.55 475.914 337.359 475.587 337.302L464.032 335.414L481.489 251.277C481.508 251.181 481.508 251.086 481.508 250.972L481.355 248.264C481.528 247.977 481.566 247.615 481.432 247.272C481.393 247.177 481.335 247.119 481.278 247.043L480.105 227.267C480.086 227.096 480.047 226.924 479.97 226.772L465.589 200.855L528.402 192.77L535.208 215.711C535.246 215.863 535.323 216.016 535.439 216.13L556.241 240.292L542.687 276.506L532.997 273.97C532.689 273.894 532.381 273.932 532.112 274.104C531.843 274.256 531.651 274.523 531.574 274.828L520.346 321.874C520.327 321.97 520.307 322.046 520.307 322.141L520.307 322.179L520.307 369.912L506.733 386.407L482.758 348.115ZM691.826 72.0175C692.038 72.3799 692.422 72.5896 692.826 72.5896C693.018 72.5896 693.21 72.5324 693.403 72.4371L693.883 72.151C695.652 74.5157 697.421 76.8804 699.094 79.1497C698.844 79.1497 698.594 79.2069 698.382 79.3786L670.792 100.565L656.642 80.3512C667.274 67.6123 676.31 56.5135 679.233 52.9283C683.251 58.1345 687.904 64.2178 692.461 70.3012L692.211 70.4347C691.711 70.7589 691.518 71.4645 691.826 72.0175ZM699.824 81.2093C700.017 81.0567 700.132 80.847 700.209 80.6372C707.361 90.3439 713.09 98.4869 713.898 100.604C711.898 102.701 699.632 112.675 686.596 123.125L672.138 102.473L699.824 81.2093ZM684.789 124.575C678.964 129.228 673.08 133.919 667.947 137.962C667.447 138.362 667.37 139.087 667.755 139.583C667.985 139.869 668.312 140.022 668.658 140.022C668.908 140.022 669.158 139.945 669.389 139.774C680.06 131.345 714.975 103.636 716.128 101.5C716.474 100.871 717.243 99.345 695.941 71.0068L723.05 55.5791L725.818 63.0736C726.03 63.6648 726.703 63.9699 727.299 63.7602C727.895 63.5313 728.202 62.8829 727.991 62.2917L724.742 53.5195C724.626 53.1953 724.376 52.9474 724.05 52.833C723.723 52.7186 723.377 52.7567 723.069 52.9092L707.63 61.6815L703.631 54.2823L724.28 40.8188C724.819 40.4756 724.972 39.7509 724.607 39.2169C724.261 38.683 723.53 38.5304 722.992 38.8927L701.458 52.9283C700.959 53.2525 700.786 53.9009 701.074 54.4349L705.611 62.8257L694.499 69.1379C690.557 63.9127 685.904 57.8293 680.425 50.7353L683.732 6.81677L735.643 -32.2388L765.213 26.192L778.96 86.549L767.52 88.5704C767.328 88.6086 767.136 88.6848 766.982 88.8184L667.697 171.564L584.812 203.544L577.89 175.797C577.775 175.339 577.391 174.996 576.929 174.939L532.132 168.684L535.727 124.155C553.338 127.931 578.525 132.584 595.848 132.584C603.981 132.584 610.364 131.554 613.44 128.942C620.765 122.687 639.357 101.004 655.084 82.201L684.789 124.575ZM660.391 9.98242L631.686 -12.7491C648.182 -23.7717 675.234 -41.8883 697.383 -56.9155L718.801 -33.9742L660.391 9.98242ZM1040.82 247.978L1041.23 276.964C1041.19 276.926 1041.15 276.907 1041.11 276.869C983.51 228.125 948.749 198.929 933.348 186.038L953.075 160.236L1007.04 188.021C1007.22 188.116 1007.39 188.155 1007.58 188.155C1008 188.155 1008.41 187.926 1008.62 187.525C1008.91 186.953 1008.7 186.267 1008.12 185.981L926.1 143.759L914.641 91.5263L936.04 67.9365L1018.41 94.4059L1007.6 129.266C1007.41 129.876 1007.75 130.525 1008.37 130.696C1008.49 130.734 1008.6 130.754 1008.72 130.754C1009.22 130.754 1009.68 130.429 1009.83 129.934L1020.73 94.8063H1047.48L1039.34 140.67L1040.82 247.978ZM662.333 327.614L647.394 315.085L715.898 253.546C716.148 253.336 716.282 253.012 716.282 252.688L716.282 223.778L761.176 196.717C761.31 196.641 761.426 196.526 761.522 196.393L776.384 175.683L797.706 170.858L819.259 176.999L821.508 186.305C821.508 186.305 821.508 186.305 821.508 186.324L832.39 231.196L744.68 317.336C744.68 317.336 744.68 317.336 744.68 317.355L688.481 372.544L661.66 395.084L653.681 369.988C653.623 369.778 653.489 369.607 653.335 369.454L635.723 354.389L662.41 329.312C662.64 329.083 662.775 328.778 662.775 328.453C662.737 328.129 662.583 327.824 662.333 327.614ZM800.571 35.4982L809.376 59.5457L776.576 65.2667L771.327 42.2491L800.571 35.4982ZM770.808 40.0179L767.751 26.5734L794.303 18.3924L799.763 33.3052L770.808 40.0179ZM810.165 61.7387L823.219 97.3999L786.689 104.723C786.189 104.818 785.843 105.238 785.786 105.714L777.076 67.517L810.165 61.7387ZM820.451 155.087L792.515 130.353L831.987 121.333L841.254 146.639L820.451 155.087ZM842.081 148.794L853.424 176.522L823.469 184.588L821.374 175.95L821.374 157.185L842.081 148.794ZM790.938 128.351L785.959 106.477C786.17 106.801 786.535 106.992 786.92 106.992C786.997 106.992 787.074 106.992 787.151 106.973L824.027 99.5739L831.198 119.14L790.938 128.351ZM787.593 124.174L763.156 136.036L758.772 130.754C758.369 130.258 757.638 130.2 757.138 130.601C756.638 131.001 756.581 131.726 756.984 132.222L761.964 138.191C762.195 138.458 762.522 138.61 762.848 138.61C763.021 138.61 763.195 138.572 763.368 138.496L788.131 126.463L788.843 129.59L779.556 148.05L726.107 176.56L714.532 156.861L722.358 152.513C722.627 152.36 722.838 152.093 722.915 151.788C722.992 151.483 722.934 151.159 722.781 150.892L713.936 136.837C713.821 136.665 713.667 136.551 713.513 136.455L768.328 90.7635L779.556 88.7802L787.593 124.174ZM720.147 151.101L712.36 155.43C712.091 155.583 711.898 155.831 711.802 156.136C711.725 156.441 711.764 156.746 711.918 157.013L724.05 177.647L700.132 190.405C700.305 190.062 700.324 189.661 700.113 189.299L683.828 162.162C683.693 161.933 683.463 161.781 683.232 161.685L711.86 137.828C711.879 137.905 711.898 138 711.956 138.076L720.147 151.101ZM698.113 190.462C698.305 190.786 698.632 190.958 698.997 190.996L576.968 256.063L562.298 243.763L567.45 212.755L668.774 173.661C668.889 173.623 669.004 173.547 669.1 173.471L681.694 162.982C681.713 163.115 681.751 163.23 681.828 163.363L698.113 190.462ZM780.979 149.9C781.19 149.786 781.363 149.614 781.46 149.404L790.419 131.612L819.047 156.956L819.047 174.577L798.033 168.589C797.841 168.531 797.648 168.531 797.456 168.57L775.422 173.566C775.153 173.623 774.903 173.795 774.73 174.024L759.753 194.905L714.513 222.176C714.167 222.385 713.956 222.748 713.956 223.167L713.956 252.211L645.606 313.617L578.871 257.684L780.979 149.9ZM762.791 302.785L774.404 316.229L758.657 330.551L747.064 318.232L762.791 302.785ZM745.41 319.853L757.734 332.954C757.965 333.202 758.273 333.316 758.58 333.316C758.869 333.316 759.138 333.221 759.368 333.011L775.903 317.984L788.112 332.096L753.793 364.858L728.529 336.444L745.41 319.853ZM764.444 301.164L797.687 268.516L816.413 288.597L824.546 297.312L789.804 330.475L764.444 301.164ZM799.321 266.895L833.198 233.618L844.445 262.089L817.317 286.232L799.321 266.895ZM824.008 186.839L854.289 178.677L869.074 214.815L834.448 229.956L824.008 186.839ZM844.234 147.974L865.633 140.46L890.204 205.585L871.208 213.899L844.234 147.974ZM867.805 139.697L879.476 135.597L904.413 199.368L892.319 204.669L867.805 139.697ZM881.668 134.815L894.992 130.143L914.795 184.531C915.141 185.485 915.737 186.324 916.525 186.972C916.602 187.029 918.429 188.555 922.101 191.625L906.566 198.414L881.668 134.815ZM924.043 193.284C938.366 205.28 973.57 234.838 1033.59 285.603C1036.13 287.739 1038.65 289.817 1041.17 291.877L1040.19 327.157L914.602 213.995L907.508 200.512L924.043 193.284ZM1020.04 92.4989L936.04 65.4955C935.617 65.3621 935.136 65.4765 934.829 65.8197L912.526 90.4012C912.276 90.6681 912.18 91.0495 912.257 91.4119L923.966 144.751C924.043 145.075 924.254 145.361 924.562 145.533L951.017 159.149L931.599 184.531C928.522 181.957 926.388 180.164 925.177 179.154L883.994 66.0295C883.898 65.7816 883.783 65.5337 883.667 65.2858L871.343 42.2491L919.005 9.37216H959.708C960.342 9.37216 960.861 8.8573 960.861 8.228L960.861 -45.6451L1002.16 -55.1039L1017.68 -12.444C1017.73 -12.2915 1017.81 -12.177 1017.91 -12.0626L1041.04 12.843L1044.09 62.7304C1044.11 63.0736 1044.28 63.3788 1044.55 63.5885L1053.92 70.511L1057.34 92.4989H1020.04ZM873.208 70.3393L894.184 127.969L880.822 132.661L831.641 6.89307L840.485 4.16605C845.464 16.7714 851.155 29.1097 857.577 41.0858L873.208 70.3393ZM878.649 133.442L866.998 137.542L819.163 10.7643L829.43 7.59866L878.649 133.442ZM864.825 138.305L843.407 145.838L796.533 17.7249L816.952 11.4318L864.825 138.305ZM795.706 15.57L767.924 -55.9811C775.23 -60.5007 781.921 -63.6282 787.977 -65.3255L816.125 9.2959L795.706 15.57ZM793.495 16.2565L766.982 24.4185L737.585 -33.65L763.291 -52.9871C764.175 -53.5974 765.059 -54.1504 765.925 -54.7225L793.495 16.2565ZM575.891 177.113L582.697 204.383L565.989 210.829C565.605 210.981 565.336 211.306 565.259 211.706L560.318 241.589L537.323 214.872L530.363 191.435L532.016 171.01L575.891 177.113ZM522.557 323.858L536.631 329.312L539.861 352.901L522.557 350.441L522.557 323.858ZM632.243 354.484L617.093 368.729L588.177 338.522L600.212 327.061L632.243 354.484ZM572.296 413.964L583.178 426.55C583.37 426.779 583.658 426.932 583.966 426.951L592.752 427.656C592.791 427.656 592.81 427.656 592.849 427.656C593.445 427.656 593.944 427.198 594.002 426.607C594.06 425.978 593.579 425.425 592.945 425.368L584.639 424.7L573.987 412.4L601.75 386.312L616.209 401.339C616.439 401.568 616.747 401.702 617.055 401.702C617.343 401.702 617.631 401.587 617.862 401.378C618.324 400.939 618.343 400.214 617.901 399.757L603.442 384.729L634.012 356.01L651.547 371.018L659.718 396.724L585.235 459.313L557.011 428.343L572.296 413.964ZM626.802 427.389L649.509 451.761L637.723 460.419L632.051 453.668C631.84 453.401 631.513 453.248 631.167 453.248C630.782 453.267 630.494 453.401 630.282 453.649L612.844 473.844L597.309 452.18L626.802 427.389ZM628.571 425.902L660.468 399.089L671.965 435.284L651.393 450.388L628.571 425.902ZM662.391 397.487L689.077 375.061L713.533 403.304L706.919 409.616L673.926 433.835L662.391 397.487ZM826.988 296.568L818.913 287.91L845.368 264.378L857.846 295.958L842.677 313.388L826.988 296.568ZM846.945 262.07C846.945 262.051 846.926 262.032 846.926 262.013L835.121 232.187L869.882 216.989L892.954 285.927L859.884 294.814L846.945 262.07ZM871.997 216.054L891.108 207.701L925.446 277.193L895.203 285.317L871.997 216.054ZM893.223 206.767L905.355 201.465L912.603 215.253C912.661 215.368 912.757 215.482 912.853 215.577L1011.5 304.463L996.084 324.22L953.44 290.752C952.94 290.351 952.209 290.447 951.806 290.943C951.402 291.438 951.498 292.163 951.998 292.563L1037.67 359.786L1008.87 365.182L935.156 296.244L928.176 277.536C928.176 277.517 928.157 277.498 928.138 277.479C928.138 277.46 928.138 277.441 928.119 277.422L893.223 206.767ZM1039.23 361.826L1037.61 420.047C1034.59 423.747 1031.54 427.504 1028.48 431.299L1014.62 420.581L1009.79 367.337L1039.23 361.826ZM997.949 325.631L1013.27 306.008L1040.11 330.189L1039.34 358.107L997.949 325.631ZM1042.36 332.229L1081.12 367.147C1068.41 382.365 1054.57 399.204 1040 417.091L1042.36 332.229ZM1042.44 329.197L1043.42 293.689C1065.57 311.424 1087.08 325.364 1107.16 336.348C1099.62 345.102 1091.39 354.827 1082.58 365.373L1042.44 329.197ZM1103.58 299.314C1089.45 288.578 1070.12 271.682 1057.07 260.03C1057.17 259.992 1057.28 259.954 1057.36 259.877L1065.24 253.603L1092.68 259.992L1108.85 287.91L1103.58 299.314ZM1110.85 289.131L1144.68 295.386C1140.42 299.391 1134.82 305.207 1128.13 312.568C1118.73 308.525 1110.69 304.463 1105.48 300.725L1110.85 289.131ZM1103.33 302.022C1108.56 305.951 1116.81 310.184 1126.48 314.38C1122.94 318.308 1119.09 322.618 1115 327.309C1092.66 315.333 1068.38 299.581 1043.55 278.89L1043.15 250.59C1051.36 258.047 1083.16 286.861 1103.33 302.022ZM1117.65 341.898C1153.82 360.32 1184.48 369.035 1204.27 373.116C1203.23 376.853 1202.15 380.744 1201.06 384.653L1104.31 357.573C1108.94 352.081 1113.4 346.837 1117.65 341.898ZM1102.66 359.5L1130.5 367.299L1127.07 379.065L1094.14 369.626C1097.04 366.193 1099.89 362.799 1102.66 359.5ZM1132.75 367.929L1200.42 386.865C1199.27 390.984 1198.13 395.103 1197.02 399.089L1129.3 379.695L1132.75 367.929ZM1202.96 386.388C1202.98 386.388 1202.98 386.388 1202.96 386.388C1204.17 382.04 1205.36 377.711 1206.52 373.573C1207.11 373.688 1207.69 373.802 1208.25 373.917C1225.03 377.826 1236.49 380.934 1244.37 384.005L1191.14 428.877C1193.23 421.401 1198.13 403.761 1202.96 386.388ZM1207.36 361.883C1203.83 361.082 1200.1 360.243 1196.17 359.366C1178.41 354.885 1153.82 346.894 1125.54 332.801C1129.96 327.748 1134.05 323.133 1137.74 319.052C1168.05 331.009 1205.36 341.783 1212.38 343.786C1211.69 346.303 1209.8 353.092 1207.36 361.883ZM1151.47 289.836C1150.28 290.561 1148.7 291.782 1146.82 293.441L1110.9 286.804L1094.45 258.409C1094.29 258.142 1094.02 257.932 1093.72 257.856L1065.24 251.219C1064.9 251.143 1064.53 251.219 1064.24 251.448L1055.92 258.085C1055.72 258.237 1055.61 258.447 1055.55 258.676C1049.05 252.859 1044.38 248.588 1043.11 247.424L1041.61 140.861L1049.8 94.8063H1058.65L1158.14 96.1031C1163.83 121.104 1170.33 149.538 1177.68 181.671C1182.18 201.37 1185.16 214.376 1185.54 216.092C1187 222.71 1198.61 255.872 1203.33 269.164C1181.27 276.621 1160.78 284.306 1151.47 289.836ZM1129.02 -54.8751C1134.4 -54.7988 1139.9 -54.7225 1145.47 -54.6462C1156.74 -54.5127 1165.66 -54.3983 1168.99 -54.1694C1169.2 -54.1504 1169.41 -54.1504 1169.66 -54.1504C1183 -54.1504 1259.54 -74.6317 1281.42 -80.5625L1305.24 22.3399C1305.26 22.4543 1305.32 22.5497 1305.34 22.645C1305.36 22.7213 1305.36 22.7785 1305.38 22.8548L1340.26 127.264L1179.08 166.872C1162.76 95.4357 1132.21 -38.2841 1129.02 -54.8751ZM1232.76 -72.4958C1203.98 -65.1538 1175.12 -58.3267 1169.31 -58.7654C1165.85 -59.0132 1156.87 -59.1277 1145.53 -59.2611C1140.57 -59.3184 1134.8 -59.3947 1128.67 -59.49C1128.23 -74.0215 1126 -134.34 1125.3 -152.972L1195.88 -171.031L1215.44 -163.975L1232.78 -111.265L1232.78 -72.4958H1232.76ZM1157.64 93.7956L1059.69 92.5179L1056.13 69.71C1056.09 69.4049 1055.92 69.1379 1055.67 68.9663L1046.36 62.082L1043.3 12.3281C1043.28 12.0611 1043.19 11.8132 1043 11.6225L1019.73 -13.4166L1003.95 -56.763C1003.7 -57.5639 995.738 -83.8997 985.798 -117.234L986.875 -117.501C1001.72 -105.125 1050.86 -64.3338 1059.42 -59.6998C1065.22 -56.5532 1091.91 -55.4853 1124.29 -54.9132C1125.88 -46.3316 1135.86 -1.74567 1157.64 93.7956ZM1054.88 -146.812C1062.4 -160.981 1069.86 -185.524 1073.37 -197.996L1114.77 -162.144L1054.88 -146.812ZM980.299 -127.723L971.301 -125.415L901.567 -117.444C900.971 -126.769 899.702 -145.859 898.202 -167.255L965.226 -179.002C970.128 -162.125 975.377 -144.352 980.299 -127.723ZM943.827 -326.929L943.384 -329.561L989.816 -328.417L1025.65 -309.289L1011.89 -284.632L1000.78 -288.045L1003.97 -297.599C1004.16 -298.21 1003.83 -298.858 1003.24 -299.049C1002.62 -299.259 1001.97 -298.915 1001.78 -298.324L998.564 -288.713L942.827 -305.838C942.981 -318.157 943.807 -326.453 943.827 -326.643C943.846 -326.739 943.846 -326.834 943.827 -326.929ZM1014.16 -283.926L1027.71 -308.202L1035 -304.312L1035 -277.538L1029.65 -279.178C1029.63 -279.178 1029.61 -279.197 1029.6 -279.197L1014.16 -283.926ZM1029.27 -252.975H1013.95L1013.95 -281.581L1028.12 -277.233L1029.27 -252.975ZM974.089 -293.824L974.089 -284.994H943.269C942.885 -291.631 942.769 -297.886 942.788 -303.435L974.089 -293.824ZM1047.23 -252.975L1047.23 -271.359L1062.7 -266.611L1064.2 -252.975H1047.23ZM1044.96 -272.065C1044.94 -271.969 1044.9 -271.893 1044.9 -271.798L1044.9 -252.975L1031.6 -252.975L1030.46 -276.508L1044.96 -272.065ZM1035 -306.925L991.22 -330.286L989.605 -345.389L1032.83 -351.701L1035 -343.158L1035 -306.925ZM989.355 -347.697L987.701 -363.201L1027.58 -372.412L1032.27 -353.971L989.355 -347.697ZM988.836 -330.743L943.019 -331.888L939.674 -352.121L985.413 -362.686L988.836 -330.743ZM940.654 -331.945L886.647 -333.28C886.532 -337.78 886.417 -342.319 886.301 -346.858L937.386 -351.625L940.654 -331.945ZM973.051 -114.05C973.32 -114.088 973.57 -114.126 973.839 -114.202L983.606 -116.7C992.45 -86.9891 999.756 -62.8273 1001.43 -57.2969L959.419 -47.6665C958.9 -47.5521 958.516 -47.0753 958.516 -46.5414L958.516 7.08377H918.602C918.371 7.08377 918.14 7.16003 917.948 7.29355L870.228 40.2276L867.825 35.7271C855.212 12.1564 845.407 -12.8254 838.677 -38.4938C832.025 -67.5376 831.602 -85.6161 837.408 -93.7399C839.946 -97.306 844.003 -99.2893 850.194 -99.9949L973.051 -114.05ZM839.658 2.03021L818.355 8.59033L790.246 -65.9166C796.475 -67.3278 801.993 -67.1562 806.742 -65.3827C818.567 -60.9775 824.527 -46.8084 827.43 -35.7096C830.775 -22.9326 834.871 -10.3272 839.658 2.03021ZM822.008 -69.273C818.624 -72.3242 814.894 -74.6507 810.818 -76.1573C806.512 -77.7592 801.878 -78.4648 796.918 -78.2932L821.412 -96.7149L826.046 -97.2488C822.585 -90.5934 821.239 -81.4969 822.008 -69.273ZM720.666 -35.3663L699.324 -58.2314C718.397 -71.18 733.374 -81.5351 733.932 -82.4886C734.816 -83.976 737.777 -92.958 739.719 -98.9842C756.677 -98.0498 779.383 -97.8019 798.148 -97.8019C800.032 -97.8019 801.859 -97.8019 803.666 -97.8019L720.666 -35.3663ZM732.009 -83.7663C730.952 -82.6411 716.686 -72.82 697.709 -59.9477L660.545 -99.747L658.065 -113.535C681.328 -108.081 710.303 -101.768 726.28 -99.9949C729.452 -99.6517 733.201 -99.3465 737.316 -99.0986C735.086 -92.1953 732.605 -84.7961 732.009 -83.7663ZM658.334 -99.0033C658.372 -98.7935 658.468 -98.5837 658.622 -98.4312L666.678 -89.8115L643.491 -80.696L627.052 -121.029C632.705 -119.618 643.222 -117.025 655.604 -114.107L658.334 -99.0033ZM641.338 -79.8569L594.291 -61.3779L591.945 -65.0775L602.808 -110.293L624.418 -121.392L641.338 -79.8569ZM668.351 -87.9998L695.768 -58.6318C675.388 -44.8251 650.086 -27.8336 629.782 -14.2557L613.094 -27.8336L613.171 -29.569C613.229 -30.7513 612.921 -31.9146 612.286 -32.9063L595.521 -59.3947L668.351 -87.9998ZM612.959 -24.9731L628.994 -11.9291L658.468 11.4127L609.287 48.4087L612.959 -24.9731ZM681.328 8.6666L678.175 50.6399C674.388 55.3121 624.764 116.298 611.998 127.206C603.711 134.281 565.047 128.198 535.323 121.752C535.189 121.676 535.016 121.619 534.843 121.6C534.785 121.6 534.746 121.619 534.689 121.619C532.574 121.161 530.517 120.704 528.517 120.246C532.747 118.892 535.15 118.11 535.381 118.053C535.996 117.862 536.592 117.557 537.111 117.156L681.328 8.6666ZM533.497 123.679L531.536 147.859L468.396 155.182L464.224 141.318C490.852 132.451 512.155 125.528 524.287 121.619C526.94 122.21 530.036 122.916 533.497 123.679ZM466.473 156.765C466.627 157.261 467.069 157.585 467.589 157.585C467.627 157.585 467.685 157.585 467.723 157.585L531.362 150.205L528.113 190.538L464.339 198.738L437.441 150.3C446.016 147.402 454.245 144.656 462.051 142.062L466.473 156.765ZM477.779 227.687L478.932 247.043L423.137 269.241L374.725 171.754C395.836 164.393 416.331 157.394 435.211 151.025L477.779 227.687ZM388.356 204.44L349.788 217.561L338.714 184.455C350.057 180.412 361.363 176.426 372.514 172.536L388.356 204.44ZM347.962 219.391L352.115 231.787L293.147 251.505L279.477 206.1C298.089 199.12 317.334 192.102 336.561 185.237L347.962 219.391ZM296.031 269.203L222.836 292.277C219.299 281.56 211.685 261.746 201.822 236.898C223.99 227.42 249.869 217.217 277.266 206.92L296.031 269.203ZM136.164 315.333C151.103 308.773 163.1 303.452 172.713 299.143L183.403 331.753L147.796 348.115L136.164 315.333ZM152.987 369.645L140.413 374.088L133.472 357.383L146.488 351.28L152.987 369.645ZM145.7 349.106L131.472 355.781C130.915 356.048 130.665 356.696 130.896 357.268L138.682 375.995C138.875 376.434 139.298 376.701 139.759 376.701C139.894 376.701 140.028 376.682 140.144 376.644L153.756 371.838L163.1 398.155L125.858 411.37L106.882 360.072L96.7303 332.611C110.823 326.47 123.205 321.054 134.068 316.287L145.7 349.106ZM148.584 350.308L184.153 333.965L190.997 354.846C190.113 355.609 189.229 356.353 188.286 357.116C177.001 366.06 170.906 377.864 169.272 395.962L165.292 397.373L148.584 350.308ZM186.268 332.992L213.454 320.501C211.012 332.096 204.091 343.137 192.901 353.187L186.268 332.992ZM185.537 330.78L174.847 298.189C193.535 289.817 202.745 285.469 207.301 283.105C210.666 292.163 212.954 298.838 213.492 301.45C214.607 306.961 214.723 312.396 213.935 317.736L185.537 330.78ZM206.532 281.045C201.207 283.734 189.613 289.055 174.136 295.977L160.716 255.052C170.425 250.724 180.288 246.338 190.267 241.913C190.574 241.78 190.901 241.627 191.228 241.494C196.996 256.14 202.456 270.137 206.532 281.045ZM185.518 231.425C168.733 238.862 152.275 246.204 136.375 253.317L129.511 234.495C129.3 233.942 128.704 233.618 128.127 233.77L117.764 236.497L73.9662 134.453L113.861 114.334C117.783 117.443 122.417 121.047 127.762 125.185C137.202 132.527 149.949 142.405 152.948 145.361C154.121 148.889 157.832 158.176 169.56 187.354C174.636 199.997 180.827 215.387 186.941 230.757C186.479 231.005 185.999 231.234 185.518 231.425ZM158.582 256.025L172.002 296.95C161.293 301.736 148.853 307.228 135.395 313.159L121.09 272.826C133.184 267.372 145.719 261.765 158.582 256.025ZM133.26 314.075C121.398 319.281 108.785 324.811 95.9036 330.418L81.2338 290.79C93.1542 285.393 105.786 279.691 118.956 273.76L133.26 314.075ZM104.286 359.728L85.1945 366.365L75.4467 341.86C79.6765 340.01 83.9255 338.179 88.1746 336.329C90.3471 335.376 92.4813 334.461 94.577 333.545L104.286 359.728ZM83.4449 368.234C83.6179 368.691 84.0601 368.958 84.5215 368.958C84.6561 368.958 84.7715 368.939 84.9061 368.901L105.075 361.902L111.535 379.333L92.712 387.342C92.116 387.59 91.8468 388.276 92.0967 388.848C92.289 389.287 92.712 389.554 93.1542 389.554C93.308 389.554 93.4618 389.516 93.6156 389.459L112.323 381.487L123.667 412.133L78.5806 428.133C78.5614 428.038 78.5614 427.942 78.5229 427.847L49.4141 353.149C57.2008 349.774 65.2182 346.303 73.3126 342.775L83.4449 368.234ZM230.392 437.267L221.298 405.63L231.431 400.557L241.005 431.508L230.392 437.267ZM255.829 423.48L243.082 430.402L233.622 399.795C233.584 399.699 233.526 399.623 233.488 399.547L244.12 394.226L255.829 423.48ZM219.664 403.895C217.338 403.876 201.591 403.971 180.423 410.207C179.808 386.941 184.768 374.622 195.516 366.098C221.375 345.578 226.951 324.124 225.951 307.61L238.679 309.841L260.155 383.585L219.664 403.895ZM279.15 374.47C279.131 374.47 279.112 374.489 279.093 374.508C279.074 374.508 279.074 374.508 279.054 374.508L262.27 382.555L251.368 345.102L293.32 333.564L304.472 364.935L279.15 374.47ZM298.877 391.042C299.088 390.565 298.954 390.031 298.55 389.707L281.823 375.938L316.257 362.951L334.292 442.455L307.01 449.091L279.554 435.208L298.877 391.042ZM260.616 478.478L278.631 437.306L305.318 450.807L286.399 488.661L260.616 478.478ZM306.221 520.051L303.472 496.042C303.433 495.622 303.145 495.26 302.741 495.107L288.552 489.501L307.663 451.265L334.792 444.667L350.577 514.292L306.221 520.051ZM496.447 473.157C496.351 473.177 496.274 473.196 496.178 473.234L455.284 489.806C455.284 489.672 455.264 489.539 455.207 489.405L447.689 470.221C447.497 469.725 446.978 469.42 446.439 469.496L414.043 474.378L405.814 418.178L415.869 410.855C416.273 410.569 416.427 410.054 416.292 409.597L409.217 386.427C409.025 385.816 408.39 385.473 407.775 385.664C407.16 385.854 406.814 386.484 407.006 387.094L413.851 409.482L403.891 416.729C403.545 416.977 403.372 417.396 403.43 417.816L411.928 475.846C411.967 476.151 412.14 476.418 412.389 476.609C412.639 476.8 412.947 476.857 413.255 476.819L445.882 471.899L453.073 490.225C453.13 490.378 453.246 490.473 453.361 490.568L358.69 528.938L320.699 361.445L399.046 352.558C399.162 352.539 399.258 352.52 399.373 352.482L414.754 346.055L432.135 373.249L423.579 381.735C423.176 382.136 423.118 382.765 423.464 383.223L437.634 402.827C437.864 403.132 438.211 403.304 438.576 403.304C438.749 403.304 438.922 403.265 439.076 403.189L480.586 383.013L502.254 383.738L505.541 389.001L515.578 404.734L496.659 418.522L487.795 407.118C487.411 406.622 486.68 406.526 486.161 406.908C485.661 407.289 485.565 408.014 485.95 408.529L494.775 419.875L484.565 427.313C484.277 427.523 484.085 427.866 484.085 428.247L484.085 446.059C484.085 446.345 484.181 446.612 484.373 446.822L506.253 471.651L496.447 473.157ZM509.002 471.27L486.45 445.658L486.45 428.858L517.596 406.145L530.19 404.581L554.55 429.048L582.832 460.075L509.002 471.27ZM641.414 524.189L626.879 540.875L595.79 505.672L571.2 484.409L562.567 465.491L585.293 462.059C585.312 462.059 585.331 462.04 585.37 462.021C585.543 461.982 585.696 461.925 585.831 461.811C585.85 461.792 585.869 461.811 585.869 461.792L585.889 461.773L595.502 453.706L611.767 476.38L641.414 524.189ZM631.301 503.46L614.171 475.827L631.128 456.185L636.627 462.726C636.627 462.726 636.646 462.726 636.646 462.745C636.646 462.745 636.646 462.745 636.646 462.764L654.142 482.445L631.301 503.46ZM655.853 480.881L639.223 462.173L651.085 453.458L667.043 470.583L655.853 480.881ZM668.235 468.504L652.95 452.085L672.677 437.592L675.926 447.832L668.235 468.504ZM706.534 476.971L699.171 485.744L670.1 470.106L678.041 448.824L707.169 441.291L712.725 448.157L706.534 476.971ZM775.711 550.296L735.547 509.086L729.971 492.247C729.856 491.884 729.548 491.598 729.183 491.503L712.744 486.964L708.841 477.41L715.148 448.118C715.225 447.775 715.128 447.432 714.917 447.165L708.553 439.308C708.265 438.946 707.803 438.793 707.361 438.908L677.983 446.497L674.695 436.161L708.457 411.37L725.799 394.798L826.276 502.544L775.711 550.296ZM827.93 500.943L799.763 470.755L831.352 444.228L854.751 475.598L827.93 500.943ZM856.385 473.882L833.39 443.084L874.573 427.16L885.917 439.899L869.151 459.198C869.151 459.198 869.151 459.198 869.132 459.198L856.385 473.882ZM920.505 526.23L911.661 504.814C911.565 504.566 911.372 504.375 911.142 504.242L858.115 475.389L870.189 461.506L932.022 511.145L920.505 526.23ZM933.425 509.333L871.708 459.789L887.628 441.482L948.883 489.138L933.425 509.333ZM950.267 487.288L890.07 440.452L926.196 431.813L970.224 461.181L950.267 487.288ZM970.628 503.117L952.094 488.7L972.128 462.459L992.393 475.98C985.183 484.943 977.915 494.02 970.628 503.117ZM993.854 474.168L927.061 429.62C926.792 429.449 926.465 429.392 926.138 429.449L887.878 438.583L877.111 426.474L929.253 415.089C929.561 415.013 929.83 414.822 930.003 414.555C930.176 414.288 930.214 413.964 930.137 413.659L917.256 366.174C917.083 365.564 916.448 365.201 915.833 365.354L864.422 379.046L858.5 360.51L895.357 348.954H895.376H895.395L895.472 348.935L911.084 342.489C911.584 342.279 911.872 341.764 911.776 341.249L907.316 312.949C907.316 312.93 907.297 312.911 907.297 312.911C907.297 312.892 907.297 312.873 907.297 312.854L905.066 304.006C904.912 303.395 904.278 303.014 903.663 303.166C903.047 303.319 902.663 303.948 902.817 304.559L904.759 312.282L847.579 326.375L844.042 315.333L859.865 297.159L926.427 279.272L933.137 297.255C933.194 297.426 933.291 297.579 933.425 297.693L1007.45 366.918L1012.37 421.268C1012.41 421.592 1012.56 421.878 1012.81 422.069L1027.04 433.053C1016.21 446.402 1005.12 460.171 993.854 474.168ZM1071.14 460.514L1054.96 489.1L1053.11 492.437L1010.91 471.422C1021.77 457.939 1033.21 443.809 1044.73 429.678L1076.05 432.08L1071.14 460.514ZM1046.5 427.485C1062.2 408.224 1077.97 389.02 1092.54 371.571L1127.57 381.602L1196.42 401.32C1192.19 416.519 1188.64 429.277 1188.02 431.508L1180.56 437.801L1046.5 427.485ZM1179.45 476.762L1165.7 455.174L1189.83 432.996L1246.82 384.977C1251.95 387.189 1255.31 389.44 1257.58 392.014C1264.12 399.471 1297.96 436.295 1311.09 450.559L1234.63 526.916L1179.45 476.762ZM1257.97 548.179L1236.32 528.48L1251.56 513.262L1273.67 531.359L1257.97 548.179ZM1275.25 529.681L1253.2 511.622L1267.89 496.957L1294.5 509.105L1275.25 529.681ZM1269.62 495.241L1312.63 452.295C1314.11 453.897 1315.22 455.117 1315.8 455.746C1317.05 457.863 1321.16 464.843 1326.89 474.473L1308.59 513.033L1269.62 495.241ZM1332.45 461.143C1329.97 456.948 1327.62 453 1325.51 449.396C1325.3 449.053 1325.07 448.71 1324.78 448.423C1324.7 448.328 1323.22 446.726 1320.82 444.114L1321.14 443.789L1336.76 450.083L1332.45 461.143ZM1338.91 450.941L1354.98 457.406C1354.96 457.444 1354.93 457.482 1354.91 457.52L1345.22 482.597C1341.27 475.999 1337.47 469.61 1333.95 463.661L1338.91 450.941ZM1349.27 531.588L1310.7 513.987L1328.34 476.857C1335.41 488.757 1344.62 504.146 1353.83 519.364C1352.35 523.331 1350.81 527.431 1349.27 531.588ZM1359 505.539C1354.89 498.711 1350.75 491.827 1346.74 485.114L1357.1 458.34C1357.12 458.302 1357.1 458.283 1357.12 458.245L1374.46 465.224C1370.54 475.045 1365.19 489.062 1359 505.539ZM1407.34 542.973L1373.75 529.815C1371.44 526.058 1369.06 522.149 1366.63 518.182C1370 509.143 1373.15 500.752 1376 493.238L1419.99 512.347L1407.34 542.973ZM1420.87 510.192L1376.81 491.064C1380.05 482.502 1382.84 475.198 1385.07 469.534L1430.16 487.689L1420.87 510.192ZM1439.35 465.51L1431.06 485.553L1408.7 476.552C1408.82 476.457 1408.95 476.361 1409.01 476.209L1418.72 455.937L1439.35 465.51ZM1417.12 453.916L1406.93 475.236C1406.84 475.427 1406.82 475.617 1406.84 475.808L1385.94 467.398C1388.11 461.887 1389.63 458.283 1390.28 457.1C1391.76 454.965 1395.42 447.584 1400.2 437.401L1420.49 446.879L1417.12 453.916ZM1430.58 427.141C1430.18 427.179 1429.81 427.389 1429.64 427.771L1421.49 444.8L1401.18 435.303C1403.59 430.173 1406.24 424.433 1409.01 418.331L1430.58 427.141ZM1380.84 450.445C1380.13 451.379 1378.17 455.918 1375.29 463.107L1322.91 442.016L1388.69 376.338C1399.65 375.614 1408.95 376.377 1414.87 377.158C1400.2 410.016 1383.57 446.555 1380.84 450.445ZM1438.43 323.4C1437.91 324.754 1437.46 325.898 1437.1 326.756C1434.43 333.049 1427.7 348.401 1419.76 366.25C1413.53 365.221 1401.74 363.848 1387.32 364.896C1413.6 354.904 1428.06 339.743 1438.43 323.4ZM1372.98 378.379C1377.17 377.54 1381.23 376.987 1385.13 376.625L1320.57 441.081L1316.53 439.461C1301.86 423.499 1272.23 391.232 1266.31 384.481C1264.56 382.479 1262.49 380.686 1259.97 379.008C1298.78 381.201 1352.21 382.498 1372.98 378.379ZM1336.72 255.243L1283.71 326.852C1283.63 326.947 1283.58 327.08 1283.54 327.195L1271.12 368.081C1251.01 367.109 1233.18 365.812 1223.34 364.629C1220.67 364.305 1215.98 363.638 1209.63 362.379C1212.59 351.719 1214.75 343.938 1214.92 343.252C1215.17 342.241 1216.4 329.064 1216.07 313.674L1275.94 258.447C1281.6 256.769 1285.04 255.777 1285.21 255.739C1286.35 255.415 1287.34 254.747 1288.09 253.851L1308.61 228.85L1336.72 255.243ZM1280.25 245.193C1272.12 247.558 1239.01 257.246 1207.73 267.696C1203.08 254.557 1191.48 221.432 1190.1 215.12C1189.71 213.384 1186.73 200.359 1182.23 180.66C1181.56 177.742 1180.85 174.634 1180.12 171.392L1341.74 131.669L1350.91 159.13L1280.25 245.193ZM1432.54 0.618988L1358.54 145.38L1318.41 25.3148L1432.54 0.618988ZM1327.78 -143.399C1339.1 -132.872 1404.7 -53.502 1416.8 -38.8561L1407.39 -5.69321L1315.24 14.2541L1271.81 -173.434C1290.46 -165.005 1319.66 -150.95 1327.78 -143.399ZM1280.37 -85.0439C1268.62 -81.8593 1251.97 -77.4159 1235.07 -73.087L1235.07 -111.456C1235.07 -111.57 1235.05 -111.704 1235.01 -111.818L1218.19 -162.984L1266.35 -145.611L1280.37 -85.0439ZM1082.7 -395.353L1157.51 -389.689L1169.1 -357.136L1125.29 -354.161C1125.21 -354.161 1125.11 -354.142 1125.04 -354.123L1082.7 -341.651L1082.7 -395.353ZM1082.7 -339.23L1125.57 -351.854L1169.91 -354.867L1173.77 -344.035L1082.7 -299.869L1082.7 -339.23ZM1082.7 -297.313L1174.54 -341.861L1178.68 -330.267C1178.7 -330.209 1178.73 -330.152 1178.75 -330.095C1180.54 -325.289 1190.14 -306.829 1202.27 -284.079L1105.73 -236.346C1105.16 -236.06 1104.92 -235.374 1105.21 -234.802C1105.42 -234.401 1105.83 -234.172 1106.25 -234.172C1106.42 -234.172 1106.6 -234.21 1106.77 -234.287L1203.34 -282.038C1222.36 -246.453 1247.1 -201.295 1258.06 -181.329L1263.25 -158.922L1198.13 -182.416C1197.04 -182.816 1195.83 -182.874 1194.71 -182.588L1120.21 -163.517L1074.34 -203.241L1070.18 -240.904L1095.43 -253.357C1095.95 -253.605 1096.2 -254.196 1096 -254.749L1082.68 -294.834L1082.68 -297.313H1082.7ZM1080.39 -395.525L1080.39 -298.496C1080.22 -298.172 1080.18 -297.79 1080.35 -297.447C1080.37 -297.428 1080.39 -297.409 1080.39 -297.39L1080.39 -294.663C1080.39 -294.548 1080.41 -294.415 1080.45 -294.3L1093.5 -254.997L1069.93 -243.364L1055.53 -374.185C1055.61 -374.147 1055.67 -374.109 1055.74 -374.09L1070.72 -370.772L1070.72 -357.518L1058.84 -358.776C1058.2 -358.834 1057.63 -358.395 1057.57 -357.747C1057.49 -357.117 1057.95 -356.545 1058.61 -356.488L1071.78 -355.077C1071.82 -355.077 1071.86 -355.077 1071.89 -355.077C1072.18 -355.077 1072.45 -355.172 1072.66 -355.363C1072.91 -355.573 1073.05 -355.897 1073.05 -356.221L1073.05 -371.668C1073.05 -372.202 1072.66 -372.679 1072.14 -372.793L1056.26 -376.302C1055.92 -376.378 1055.59 -376.283 1055.34 -376.111L1052.97 -397.584L1080.39 -395.525ZM1054.88 -337.532L1037.31 -341.041L1037.31 -343.33C1037.31 -343.425 1037.29 -343.52 1037.27 -343.616L1029.81 -372.945L1050.46 -377.713L1054.88 -337.532ZM1048.28 -397.432L1050.21 -379.982L1029.25 -375.139L1024.56 -393.579L1048.28 -397.432ZM1022.27 -393.217L1027 -374.643L987.451 -365.508L985.125 -387.191L1022.27 -393.217ZM982.818 -386.809L985.163 -364.974L939.289 -354.371L935.194 -379.086L982.818 -386.809ZM932.906 -378.724L937.021 -353.875L886.244 -349.146C886.07 -356.564 885.917 -363.944 885.763 -371.077L932.906 -378.724ZM884.09 -277.328H846.618L844.042 -295.445L883.187 -296.76C883.456 -289.533 883.763 -282.954 884.09 -277.328ZM881.36 -360.035L877.707 -370.562H881.129C881.206 -367.11 881.283 -363.582 881.36 -360.035ZM880.553 -401.532C880.687 -393.007 880.879 -383.224 881.072 -372.85H876.899L867.152 -400.998L880.553 -401.532ZM825.661 -399.358L864.748 -400.902L874.458 -372.85H824.238L825.661 -399.358ZM774.115 -346.877C782.671 -352.75 804.281 -368.483 807.108 -370.543H822.95C822.969 -370.543 822.989 -370.543 823.008 -370.543H823.027L875.265 -370.562L881.533 -352.464C881.956 -334.004 882.475 -315.106 883.09 -299.068L842.677 -297.714C842.35 -297.695 842.042 -297.561 841.831 -297.294C841.619 -297.046 841.523 -296.722 841.561 -296.398L844.465 -276.031C844.541 -275.459 845.041 -275.04 845.618 -275.04H884.244C884.667 -268.079 885.128 -262.816 885.628 -259.993C888.705 -242.468 895.357 -141.93 896.991 -116.929L832.371 -109.549C829.968 -109.511 812.164 -109.263 791.246 -109.32L791.246 -159.036C791.246 -159.169 791.227 -159.303 791.169 -159.436L728.452 -328.855C734.874 -330.915 765.675 -341.079 774.115 -346.877ZM591.599 -265.543C597.001 -270.901 608.922 -292.985 610.71 -296.322L702.324 -329.79L726.107 -328.436L788.9 -158.807L788.9 -109.301C766.598 -109.397 741.353 -109.892 727.568 -111.399C702.612 -114.145 642.357 -129.039 628.475 -132.509L598.405 -211.65C598.117 -212.413 597.655 -213.119 597.078 -213.691L563.355 -247.159C572.603 -252.556 587.638 -261.614 591.599 -265.543ZM277.42 -298.133L280.669 -372.087L332.235 -358.624C332.331 -358.605 332.427 -358.586 332.523 -358.586C332.734 -358.586 332.946 -358.643 333.138 -358.757C333.407 -358.929 333.6 -359.196 333.657 -359.501L339.002 -385.417L384.665 -373.727L382.069 -359.94C374.533 -348.593 368.726 -339.764 366.515 -336.274L299.973 -292.412L277.42 -298.133ZM359.863 -318.081C355.768 -305.761 349.058 -285.662 341.925 -265.447L302.261 -280.112L359.863 -318.081ZM299.857 -278.548L341.136 -263.292C331.081 -234.954 320.372 -206.959 314.989 -200.647C313.604 -199.007 311.835 -197.329 309.836 -195.632L268.73 -221.376L265.346 -238.902L262.462 -253.929L299.857 -278.548ZM307.971 -194.068C292.436 -181.825 264.558 -169.239 255.963 -166.626C254.848 -166.283 251.791 -164.738 247.196 -162.259C238.352 -162.183 226.489 -161.172 215.953 -160.161C226.874 -168.209 240.044 -189.3 241.255 -191.264L267.884 -219.183L307.971 -194.068ZM266.384 -221.357L239.544 -210.354L235.391 -217.124L263.443 -236.69L266.384 -221.357ZM229.758 -289.609L215.742 -291.65L204.86 -329.199L215.011 -332.555L229.758 -289.609ZM198.419 -380.631L205.879 -367.625C204.61 -366.08 204.225 -364.021 204.879 -362.152L214.281 -334.729L204.225 -331.411L201.572 -340.603C201.437 -341.041 201.053 -341.384 200.591 -341.423L189.056 -342.738L175.789 -361.542L198.419 -380.631ZM173.982 -360.054L187.421 -341.003C187.614 -340.736 187.902 -340.564 188.248 -340.526L199.534 -339.249L213.704 -290.315C213.838 -289.876 214.204 -289.552 214.646 -289.495L230.585 -287.168L241.947 -254.081C237.564 -251.126 229.296 -245.729 218.53 -239.474L196.496 -243.059C196.535 -243.231 196.554 -243.402 196.515 -243.593L179.231 -322.944C179.173 -323.249 178.962 -323.516 178.692 -323.687C178.423 -323.859 178.096 -323.897 177.789 -323.821L150.487 -316.403L143.22 -334.157L173.982 -360.054ZM185.133 -284.975L194.189 -243.44L152.871 -250.153L146.777 -276.413L185.133 -284.975ZM146.258 -278.644L138.798 -310.815L177.231 -321.265L184.653 -287.225L146.258 -278.644ZM153.006 -247.807L215.376 -237.662C198.015 -227.784 174.963 -216.284 151.256 -208.981L153.006 -247.807ZM120.783 -366.271L132.838 -363.258L134.51 -330.362L102.075 -326.872L95.1922 -356.812L120.783 -366.271ZM92.9043 -356.45L99.7681 -326.605L49.4334 -321.208L51.1445 -360.169L92.9043 -356.45ZM45.9149 -397.851L57.9314 -395.353L49.1642 -362.648L39.2818 -363.525L45.9149 -397.851ZM15.2873 -350.405L38.109 -361.332L48.8181 -360.378L47.1262 -321.399L12.7686 -330.286L15.2873 -350.405ZM2.23252 -298.267L5.23184 -329.847L26.9192 -324.24L23.247 -294.148L2.23252 -298.267ZM41.3006 -248.666L44.819 -287.874L75.6582 -289.437L81.9452 -249.276L41.3006 -248.666ZM77.7923 -290.811C77.6962 -291.402 77.1771 -291.802 76.581 -291.783L43.8385 -290.124L25.5349 -293.709L29.1879 -323.668L47.9337 -318.825C47.9914 -318.805 48.0683 -318.805 48.126 -318.805C48.1452 -318.805 48.1644 -318.786 48.1644 -318.786C48.1836 -318.786 48.2029 -318.786 48.2221 -318.786C48.2605 -318.786 48.299 -318.786 48.3374 -318.786L135.856 -328.188C135.875 -328.188 135.895 -328.207 135.914 -328.207C136.106 -328.245 136.26 -328.302 136.394 -328.417C136.414 -328.436 136.452 -328.436 136.471 -328.455L141.355 -332.574L148.219 -315.773L137.067 -312.741C136.471 -312.57 136.106 -311.978 136.241 -311.368L150.41 -250.267L84.2524 -249.295L77.7923 -290.811ZM115.303 -201.867C107.766 -201.372 99.8258 -201.524 91.6738 -202.115L84.6369 -247.006L150.68 -247.998L148.892 -208.237C137.644 -204.919 126.262 -202.592 115.303 -201.867ZM147.776 -195.956C199.649 -210.01 248.965 -244.813 252.157 -247.083L260.405 -252.518L262.981 -239.15L233.199 -218.363C232.699 -218.02 232.565 -217.333 232.873 -216.818L238.121 -208.294C238.41 -207.817 239.025 -207.608 239.563 -207.836L263.173 -217.524L239.525 -192.733C239.467 -192.676 239.409 -192.618 239.371 -192.542C239.179 -192.237 221.01 -162.831 210.224 -159.589C210.07 -159.57 209.916 -159.551 209.782 -159.551C209.224 -159.494 208.666 -159.436 208.109 -159.398L208.109 -180.623C208.109 -181.157 207.744 -181.615 207.224 -181.749L147.776 -195.956ZM182.499 -185.296L205.783 -179.727L205.783 -159.189C201.322 -158.769 197.573 -158.426 195.323 -158.311C192.189 -158.178 185.768 -159.208 178.443 -160.695L182.499 -185.296ZM36.3402 -64.4864L39.0319 -76.8629C39.0895 -77.0917 39.0703 -77.3206 38.9742 -77.5303L24.4198 -113.191L25.3811 -137.029L109.054 -169.334L141.643 -167.065C144.566 -166.283 185.287 -155.565 195.419 -156.004C198.361 -156.137 203.744 -156.652 209.974 -157.262C219.683 -158.197 232.565 -159.456 242.793 -159.837C205.167 -138.993 98.999 -75.7187 45.8765 -43.9478L36.3402 -64.4864ZM50.7792 -33.4402C137.702 -85.4254 251.157 -152.609 259.366 -155.622C269.614 -158.75 309.74 -176.581 323.852 -193.21C333.427 -204.499 353.153 -261.328 371.168 -315.43C373.456 -322.276 375.436 -328.245 375.975 -329.637C377.205 -331.678 384.53 -342.777 394.682 -358.052L482.47 -350.252L515.482 -278.854C515.77 -278.224 516.174 -277.671 516.654 -277.175L587.965 -206.444L616.843 -130.431L595.079 -119.256C593.579 -118.493 592.503 -117.101 592.099 -115.48L580.063 -65.3636C579.698 -63.8571 579.967 -62.2743 580.794 -60.9775L601.481 -28.2913L597.194 57.5242L530.843 107.431C515.058 112.484 309.451 178.429 197.534 226.238C192.209 212.869 186.383 198.357 180.288 183.196C172.54 163.935 165.215 145.704 163.946 142.005C163.773 138.916 161.639 136.989 134.876 116.222C123.936 107.717 110.304 97.152 107.978 94.5203C104.959 91.0877 97.6147 72.2273 92.289 55.9414C92.2121 55.7316 92.1352 55.5219 92.0391 55.3121L50.7792 -33.4402ZM10.0961 121.848L32.6679 110.387C32.8986 110.272 33.0909 110.062 33.2063 109.834L47.3761 78.0246C47.4146 77.9292 47.453 77.8339 47.453 77.7386L50.1832 59.6601L76.7733 49.8008L81.4261 59.7745C83.5987 66.3728 93.3272 95.245 99.3067 102.034C101.018 103.979 105.305 107.564 111.9 112.809L71.9859 132.927C71.4476 133.194 71.1976 133.843 71.4476 134.396L104.498 211.42L55.9511 230.09L10.0961 121.848ZM56.8163 232.226L105.382 213.537L115.553 237.26L66.8717 255.987L56.8163 232.226ZM67.7754 258.085L117.456 238.976L127.704 236.268L134.26 254.252C114.015 263.329 94.75 272.006 77.0617 280.015L67.7754 258.085ZM33.5716 312.473C46.9147 306.37 62.2766 299.391 79.1189 291.763L93.7694 331.371C78.7728 337.912 63.4686 344.568 48.5682 351.013L33.5716 312.473ZM2.48246 373.459C15.4026 367.89 30.803 361.235 47.2992 354.084L76.3696 428.705C76.408 428.781 76.4657 428.819 76.5234 428.877L27.1499 446.402L2.48246 373.459ZM27.8805 448.576L63.584 435.914C63.6032 435.99 63.6032 436.066 63.6224 436.142L71.0054 454.984L35.0712 469.801L27.8805 448.576Z" fill="#6775FF"/>
</svg>
